<svg width="50" height="49" viewBox="0 0 50 49" fill="none" xmlns="http://www.w3.org/2000/svg">
<g clip-path="url(#clip0_1560_3436)">
<path d="M49.7751 0H0V46.0834H49.7751V0Z" fill="#CCDB2D"/>
<path d="M49.7903 46.048H0V48.9998H49.7903V46.048Z" fill="#818789"/>
<path fill-rule="evenodd" clip-rule="evenodd" d="M46.9434 3.69464C47.3435 23.4432 37.112 40.0694 20.1184 38.4028C14.0402 41.1437 8.11403 42.1577 2.2334 42.5392C2.83108 41.9971 3.42371 41.4549 4.02139 40.9128C8.10896 41.6206 13.4223 40.0242 17.7327 38.1819C14.9368 33.3426 18.0772 26.9773 25.5178 22.4091C26.0598 22.0527 26.5866 21.7013 27.1032 21.3549C34.1337 15.4263 38.2972 11.5258 42.0403 4.80908C42.2429 6.29499 42.3696 7.76584 42.4152 9.2116C43.9803 7.54998 45.4644 5.74279 46.9434 3.69464ZM34.3515 16.2948C37.036 14.2868 39.3761 12.3139 41.5541 10.1052C41.549 9.18148 41.5136 8.2327 41.4477 7.24879C39.7104 10.3461 37.3449 13.3631 34.3515 16.2948ZM19.0851 37.3285C26.2371 33.1569 32.1127 27.9562 37.6792 21.8168C33.1206 27.8859 27.944 33.2523 21.2074 37.5544C32.2494 37.8104 44.7603 28.9602 45.8645 6.63133C41.6756 12.4043 35.5012 17.6903 27.3464 22.4794C24.5352 24.2665 22.5801 25.8277 21.2378 27.2183C17.0287 31.5656 18.5229 35.4611 19.0851 37.3285Z" fill="white"/>
</g>
<defs>
<clipPath id="clip0_1560_3436">
<rect width="49.7903" height="49" rx="2.51614" fill="white"/>
</clipPath>
</defs>
</svg>
