<svg width="307" height="360" viewBox="0 0 307 360" fill="none" xmlns="http://www.w3.org/2000/svg">
<path fill-rule="evenodd" clip-rule="evenodd" d="M290.913 1.037C296.268 1.87501 300.538 4.91228 303.46 9.20228C307.813 15.5958 306.724 23.4642 305.199 29.1021C303.503 35.3664 300.262 42.4747 296.139 49.9344C287.841 64.9478 274.969 83.1649 259.949 102.041C240.15 126.923 216.145 153.541 192.952 176.252C192.196 178.957 191.51 181.611 190.901 184.204C188.069 196.256 187.022 206.417 187.79 214.155C188.536 221.674 190.819 225.553 193.354 227.506C193.126 227.322 193.283 227.359 193.8 227.48C197.175 228.273 214.875 233.787 242.255 204.098C245.999 200.038 264.462 185.637 257.095 202.175C254.793 207.343 255.615 210.784 251.871 214.844C215.219 256.926 188.672 248.754 181.975 243.963C172.814 237.41 168.958 226.915 167.888 216.13C167.369 210.904 167.459 205.268 168.039 199.36C164.719 202.251 161.46 205.005 158.28 207.602C142.144 220.779 125.589 231.379 109.986 240.871C106.045 243.269 102.192 245.58 98.4297 247.837C93.8671 250.575 89.437 253.233 85.1423 255.868C82.1413 261.235 78.8665 267.175 75.4085 273.449L75.2893 273.665C66.6205 289.395 56.9503 306.942 48.1083 321.676C43.6674 329.076 39.3573 335.899 35.423 341.497C31.6424 346.877 27.6971 351.879 23.9466 354.999C22.2553 356.406 19.2166 358.64 15.2552 359.103C12.978 359.37 10.3684 359.046 7.89319 357.658C5.4993 356.316 3.97109 354.395 3.02986 352.693C1.3205 349.603 0.902645 346.085 0.78614 343.364C0.657462 340.359 0.860211 336.836 1.31232 332.868C10.6376 291.893 28.0312 273.449 55.5388 251.205C60.2394 247.943 65.1656 244.748 70.2298 241.581C73.9481 235.005 77.2653 229.326 79.9353 225.16C87.3539 213.584 103.491 186.806 117.042 163.619C118.093 161.821 119.127 160.047 120.138 158.306C113.631 161.365 106.784 164.012 100.313 165.615C93.943 167.193 86.6205 168.102 80.1422 166.19C70.288 162.697 68.6658 163.603 70.2298 158.306C71.7939 153.009 75.0306 153.288 83.2851 149.217C85.3049 148.471 90.2474 147.504 95.5037 146.201C100.466 144.972 106.224 142.777 112.131 139.969C124.152 134.255 135.162 126.798 139.993 121.968C140.256 121.704 140.69 121.288 141.252 120.861L141.264 120.851C141.615 120.584 143.013 119.518 145.104 119.006C146.29 118.716 150.388 119.351 152.69 120.328C155.103 121.352 155.625 121.575 157.064 124.647C158.518 127.75 157.593 129.395 157.539 129.892C157.539 129.892 157.536 129.92 157.535 129.931C157.381 131.417 156.917 132.657 156.777 133.033L156.767 133.058C156.543 133.659 156.281 134.264 156.032 134.81C155.065 136.932 153.408 140.09 151.391 143.783C147.283 151.304 141.104 162.084 134.31 173.71C125.393 188.967 115.302 205.876 107.257 219.068C120.124 211.045 133.073 202.364 145.63 192.111C154.899 184.541 164.931 175.518 175.232 165.585C182.172 142.72 193.197 117.597 205.638 94.2577C220.68 66.0387 238.203 39.6548 253.885 22.4538C261.578 14.0154 269.603 6.91129 277.315 3.36157C281.238 1.55577 285.955 0.261005 290.913 1.037ZM210.811 128.841C222.614 115.858 234.026 102.498 244.299 89.5877C259.011 71.0988 271.111 53.8729 278.634 40.2601C282.422 33.4067 284.803 27.906 285.893 23.8775C286.207 22.7189 286.371 21.842 286.456 21.199C286.226 21.2873 285.967 21.3959 285.678 21.5292C281.716 23.3528 275.893 27.9989 268.664 35.9282C254.502 51.4626 237.882 76.2841 223.287 103.665C218.867 111.957 214.671 120.413 210.811 128.841ZM46.8252 283.788C35.3239 294.885 27.0957 307.512 23.1374 323.953C25.5924 320.186 28.2161 315.956 30.9592 311.385C36.0573 302.889 41.459 293.398 46.8252 283.788Z" fill="white"/>
<path d="M175.232 91.9044C169.342 100.369 167.953 100.531 161.515 97.7745C156.141 94.0319 157.535 92.7906 160.553 85.4242C166.443 76.96 167.405 67.7969 179.74 74.9884C183.008 76.8936 181.122 83.4402 175.232 91.9044Z" fill="white"/>
</svg>
