<svg width="25" height="41" viewBox="0 0 25 41" fill="none" xmlns="http://www.w3.org/2000/svg">
<path d="M6.74353 4.73376C5.61853 4.73376 5.05603 4.42908 5.05603 3.8197V1.35876C5.05603 0.74939 5.61853 0.444702 6.74353 0.444702H7.23572C8.34509 0.444702 8.89978 0.74939 8.89978 1.35876V3.8197C8.89978 4.42908 8.34509 4.73376 7.23572 4.73376H6.74353ZM3.36853 40.6166C1.32166 40.6166 0.298218 40.2025 0.298218 39.3744C0.298218 39.2181 0.33728 38.976 0.415405 38.6478C0.477905 38.3353 0.579468 38.0463 0.720093 37.7806C0.860718 37.5306 1.01697 37.4056 1.18884 37.4056C1.28259 37.4056 1.47791 37.4369 1.77478 37.4994C2.07166 37.5775 2.47791 37.6166 2.99353 37.6166C3.68103 37.6166 4.22009 37.39 4.61072 36.9369C5.01697 36.4994 5.22009 35.7025 5.22009 34.5463V10.8275C5.22009 10.2181 5.78259 9.91345 6.90759 9.91345H7.07166C8.18103 9.91345 8.73572 10.2181 8.73572 10.8275V34.851C8.73572 37.0072 8.18884 38.5072 7.09509 39.351C6.00134 40.1947 4.75916 40.6166 3.36853 40.6166Z" fill="white"/>
<path d="M21.3451 32.015C19.9545 32.015 18.7123 31.5931 17.6185 30.7494C16.5248 29.9056 15.9779 28.4135 15.9779 26.2728V1.35876C15.9779 0.74939 16.5326 0.444702 17.642 0.444702H17.8295C18.9232 0.444702 19.4701 0.74939 19.4701 1.35876V25.9447C19.4701 27.0853 19.6732 27.8822 20.0795 28.3353C20.4857 28.7885 21.0326 29.015 21.7201 29.015C22.2357 29.015 22.642 28.9838 22.9388 28.9213C23.2357 28.8588 23.431 28.8275 23.5248 28.8275C23.7748 28.8275 23.9779 29.0775 24.1342 29.5775C24.306 30.0775 24.392 30.476 24.392 30.7728C24.392 31.601 23.3763 32.015 21.3451 32.015Z" fill="white"/>
</svg>
