<svg xmlns:dc="http://purl.org/dc/elements/1.1/" xmlns:cc="http://creativecommons.org/ns#" xmlns:rdf="http://www.w3.org/1999/02/22-rdf-syntax-ns#" xmlns:svg="http://www.w3.org/2000/svg" xmlns="http://www.w3.org/2000/svg" viewBox="0 0 853.59998 403.04999" height="98" width="295" xml:space="preserve" version="1.1" id="svg2"><metadata id="metadata8"><rdf:rdf><cc:work rdf:about=""><dc:format>image/svg+xml</dc:format><dc:type rdf:resource="http://purl.org/dc/dcmitype/StillImage"></dc:type></cc:work></rdf:rdf></metadata><defs id="defs6"></defs><g transform="matrix(1.25,0,0,-1.25,0,403.05)" id="g10"><g transform="scale(0.1,0.1)" id="g12"><path id="path14" style="fill:#be2628;fill-opacity:1;fill-rule:nonzero;stroke:none" d="m 5163.74,369.781 c -273.59,266.028 -323.76,451.489 -323.01,493.098 154.5,293.981 214.06,623.271 172.24,952.531 -54.29,427.15 -271.66,807.58 -612.06,1071.22 -285.31,220.98 -625.62,337.78 -984.11,337.78 -68.42,0 -137.77,-4.4 -206.16,-13.08 C 2328.9,3099.25 1702.68,2290.73 1814.69,1409 1868.98,981.852 2086.35,601.422 2426.74,337.789 2712,116.801 3052.13,0 3410.34,0 l 0.29,0 c 68.44,0 137.86,4.39844 206.35,13.082 171.65,21.7891 336.73,70.2774 491.22,144.227 138.98,-70.9379 284.3,-106.8793 432.47,-106.8793 358.07,0 608.93,208.0313 619.43,216.8793 l 58.39,49.23 -54.75,53.242"></path><path id="path16" style="fill:#ffffff;fill-opacity:1;fill-rule:nonzero;stroke:none" d="m 3417.94,2699.14 c -46.19,0 -92.66,-2.88 -139.22,-8.84 -594.47,-75.57 -1016.67,-620.65 -941.14,-1215.09 36.56,-287.97 183.12,-544.46 412.61,-722.241 229.52,-177.789 514.36,-255.797 802.48,-218.86 154.71,19.621 300.33,70.993 432.84,152.762 l 71.65,44.199 c 0,0 166.06,-178.781 449.98,-198.129 -190.68,180.559 -185.32,479.779 -185.32,479.779 l 0,0 c 143.68,216.98 204.76,478.55 171.99,736.48 l 0,0 c -36.59,287.97 -183.12,544.46 -412.61,722.18 -192.43,149.06 -423.8,227.76 -663.26,227.76"></path><path id="path18" style="fill:#1d1d24;fill-opacity:1;fill-rule:nonzero;stroke:none" d="m 0,1119.76 6828.79,0 0,976.457 -6828.79,0 0,-976.457 z"></path><path id="path20" style="fill:#ffffff;fill-opacity:1;fill-rule:nonzero;stroke:none" d="m 557.164,1854.45 175.996,-336.26 180.442,340.12 261.508,0 0,-93.19 -137.93,0 0,-301.4 137.93,0 0,-102.18 -334.485,0 0,95.75 111.027,0 0,311.69 -199.711,-377.39 -44.992,0 -202.176,373.53 0,-307.83 115.977,0 0,-95.75 -325.09,0 0,89.32 135.449,0 0,304.62 -135.449,0 0,98.97 261.504,0"></path><path id="path22" style="fill:#ffffff;fill-opacity:1;fill-rule:nonzero;stroke:none" d="m 1577.51,1781.19 c -59.66,0 -108.76,-12.63 -147.33,-37.84 -46.15,-30.38 -69.2,-75.27 -69.2,-134.7 0,-61.15 23.23,-105.21 69.7,-132.14 35.91,-20.95 85.69,-31.43 149.29,-31.43 57.67,0 103.33,13.05 136.93,39.12 38.57,29.94 57.85,74.4 57.85,133.43 0,53.87 -21.1,95.56 -63.28,125.07 -36.58,25.65 -81.24,38.49 -133.96,38.49 z m 0,77.12 c 69.52,0 131.16,-20.12 184.88,-60.33 60.3,-44.93 90.46,-102.91 90.46,-173.94 0,-81.72 -29.16,-147.2 -87.49,-196.41 -52.41,-44.07 -115.02,-66.09 -187.85,-66.09 -78.46,0 -144.54,18.38 -198.25,55.19 -64.26,44.07 -96.4,106.96 -96.4,188.7 0,58.19 16.48,107.82 49.44,148.89 27.68,34.66 65.91,61.2 114.69,79.6 42.51,16.26 86.02,24.39 130.52,24.39"></path><path id="path24" style="fill:#ffffff;fill-opacity:1;fill-rule:nonzero;stroke:none" d="m 2167.76,1454.08 235.31,0 c 56.35,0 94.24,14.1 113.7,42.32 17.46,25.22 26.19,63.48 26.19,114.8 0,66.7 -15.82,110.52 -47.46,131.47 -18.78,12.39 -53.22,18.59 -103.31,18.59 l -224.43,0 0,-307.18 z m -211.59,397.8 377.69,0 c 61.62,0 106.94,-3.01 135.95,-8.99 49.1,-10.28 86.51,-30.81 112.2,-61.61 30.98,-37.66 46.48,-92.2 46.48,-163.65 0,-75.75 -15.16,-133.94 -45.48,-174.59 -25.39,-34.24 -62.46,-57.33 -111.24,-69.32 -32.62,-8.13 -78.59,-12.18 -137.91,-12.18 l -380.17,0 0,92.54 135.47,0 0,307.18 -132.99,0 0,90.62"></path><path id="path26" style="fill:#ffffff;fill-opacity:1;fill-rule:nonzero;stroke:none" d="m 3251.36,1657.79 c -3.62,35.81 -36.42,66.07 -98.38,90.79 -56.35,22.59 -115.67,33.89 -177.96,33.89 -37.57,0 -67.4,-4.81 -89.47,-14.44 -22.09,-9.63 -32.46,-24.07 -31.14,-43.31 0,-30.8 23.05,-48.56 69.2,-53.25 22.73,-1.72 49.68,-3.33 80.83,-4.83 31.14,-1.5 66.48,-2.67 106.03,-3.52 61.63,-3.86 109.09,-15.19 142.37,-34.02 46.48,-26.51 69.71,-68.66 69.71,-126.41 0,-48.76 -20.93,-85.77 -62.78,-111 -37.25,-22.67 -86.19,-34.01 -146.82,-34.01 -49.12,0 -98.47,7.6 -148.06,22.82 -49.61,15.2 -90.39,35.44 -122.36,60.72 l 0,-77.12 -66.74,0 0,215.93 52.41,0 c 18.78,-47.55 55.53,-84.41 110.23,-110.53 47.79,-22.72 100.19,-34.06 157.22,-34.06 40.85,0 74.97,6.31 102.32,18.93 27.36,12.61 41.03,29.83 41.03,51.65 0,32.93 -33.94,52.83 -101.82,59.67 -54.07,2.57 -107.95,5.36 -161.66,8.35 -59.66,8.12 -90.31,12.4 -91.95,12.83 -34.95,7.28 -61.3,18.83 -79.1,34.66 -22.41,19.66 -33.61,47.9 -33.61,84.7 0,47.48 23.56,84.69 70.69,111.65 42.51,24.37 96.06,36.57 160.66,36.57 47.78,0 93.35,-6.81 136.68,-20.4 43.34,-13.6 79.19,-33.37 107.53,-59.29 l 0,68.13 66.74,0 0,-185.1 -61.8,0"></path><path id="path28" style="fill:#ffffff;fill-opacity:1;fill-rule:nonzero;stroke:none" d="m 3666.63,1509.56 c 0,-23.41 7.22,-40.43 21.75,-51.08 12.18,-8.94 29.96,-13.4 53.38,-13.4 18.11,0 36.75,2.29 55.86,6.88 19.1,4.58 34.92,10.22 47.45,16.89 -5.92,15 -24.06,31.28 -54.38,48.84 -30.32,17.57 -57.03,26.36 -80.07,26.36 -13.53,0 -24.24,-2.78 -32.13,-8.31 -7.93,-5.53 -11.86,-14.26 -11.86,-26.18 z m -137.94,84.9 c 0,-34.78 10.88,-65.26 32.63,-91.46 19.11,-23.17 43.18,-39.05 72.17,-47.63 -7.92,13.81 -13.59,25.91 -17.05,36.27 -3.46,10.36 -5.19,20.08 -5.19,29.16 0,10.8 2.96,21.81 8.89,33.05 2.64,5.18 9.39,15.98 20.28,32.39 6.25,9.07 15.32,15.86 27.18,20.41 11.85,4.53 25.71,6.81 41.53,6.81 31.64,0 66.56,-8.04 104.8,-24.11 38.22,-16.06 71.5,-37.58 99.85,-64.59 17.47,31.2 26.21,64.96 26.21,101.29 0,51.71 -22.25,91.03 -66.74,117.94 -36.92,22.22 -82.74,33.34 -137.41,33.34 -60.32,0 -108.28,-13.09 -143.88,-39.28 -42.17,-31.35 -63.27,-79.2 -63.27,-143.59 z m 489.9,31.59 c 0,-36.79 -3.38,-65.44 -10.16,-85.97 -4.49,-13.26 -15.11,-33.79 -31.87,-61.59 20.49,-15.42 34.63,-23.12 42.44,-23.12 1.29,0 3.58,0.41 6.84,1.27 8.13,2.15 14.23,7.4 18.28,15.75 4.08,8.35 6.11,18.09 6.11,29.25 0,2.99 0,7.48 0,13.48 l 56.38,0 c 0.32,-4.28 0.56,-8.02 0.7,-11.24 0.18,-3.21 0.27,-5.68 0.27,-7.39 0,-33.84 -6.93,-62.34 -20.78,-85.47 -14.82,-24.86 -36.07,-40.49 -63.75,-46.92 -4.64,-0.86 -8.1,-1.29 -10.39,-1.29 -13.53,0 -29.26,6.33 -47.22,18.96 -17.96,12.64 -35.16,25.17 -51.66,37.6 -29.99,-22.88 -57.67,-38.24 -83.03,-46.08 -25.39,-7.84 -56.38,-11.75 -92.95,-11.75 -75.81,0 -139.41,17.94 -190.83,53.84 -61.28,42.72 -91.92,104.89 -91.92,186.53 0,85.45 29.96,150.62 89.95,195.5 50.75,38.02 114.35,57.04 190.84,57.04 75.13,0 138.41,-16.91 189.8,-50.67 61.96,-40.65 92.95,-99.88 92.95,-177.73"></path><path id="path30" style="fill:#ffffff;fill-opacity:1;fill-rule:nonzero;stroke:none" d="m 4375.23,1578.49 c 0,-58.58 11.68,-94.7 35.07,-108.37 19.14,-11.13 71.7,-16.69 157.7,-16.69 78.45,0 126.58,7.16 144.37,21.48 17.79,14.33 26.71,55.25 26.71,122.82 l 0,167.39 -135.48,0 0,89.33 342.1,0 0,-89.33 -123.59,0 0,-167.47 c 0,-69.72 -3.14,-115.93 -9.39,-138.58 -9.57,-35.09 -31.88,-59.69 -66.98,-73.8 -35.1,-14.12 -93.51,-21.17 -175.25,-21.17 -122.59,0 -200.72,13.7 -234.32,41.06 -31,25.23 -46.47,83.2 -46.47,173.89 l 0,186.07 -132.98,0 0,89.33 351.96,0 0,-89.33 -133.45,0 0,-186.63"></path><path id="path32" style="fill:#ffffff;fill-opacity:1;fill-rule:nonzero;stroke:none" d="m 5321.49,1780.55 -83.06,-152.96 174.01,0 -90.95,152.96 z m 139.41,-234.58 -267.96,0 -51.4,-95.11 136.92,0 0,-89.32 -339.11,0 0,92.54 113.7,0 239.76,400.37 88.49,0 242.22,-396.51 120.13,0 0,-96.4 -348.03,0 0,89.32 125.59,0 -60.31,95.11"></path><path id="path34" style="fill:#ffffff;fill-opacity:1;fill-rule:nonzero;stroke:none" d="m 6072.37,1454.08 235.32,0 c 56.36,0 94.25,14.1 113.7,42.32 17.47,25.22 26.21,63.48 26.21,114.8 0,66.7 -15.82,110.52 -47.45,131.47 -18.79,12.39 -53.24,18.59 -103.34,18.59 l -224.44,0 0,-307.18 z m -211.58,397.8 377.7,0 c 61.6,0 106.95,-3.01 135.95,-8.99 49.1,-10.28 86.49,-30.81 112.2,-61.61 30.99,-37.66 46.49,-92.2 46.49,-163.65 0,-75.75 -15.17,-133.94 -45.49,-174.59 -25.39,-34.24 -62.46,-57.33 -111.24,-69.32 -32.64,-8.13 -78.6,-12.18 -137.91,-12.18 l -380.17,0 0,92.54 135.45,0 0,307.18 -132.98,0 0,90.62"></path></g></g></svg>