<svg className='svg-me' width="310" height="497" viewBox="0 0 310 497" fill="none" xmlns="http://www.w3.org/2000/svg">
  <g className="neck">
    <path d="M97.7387 316.051H207.067L221.405 480.708C221.405 480.708 180.508 496.051 153.141 496.051C126.616 496.051 83.4054 480.708 83.4054 480.708L97.7387 316.051Z" fill="#C7A593" />
  </g>
  <g className="neck-shadow">
    <path d="M97.7387 316.051H207.067L217.336 433.974C160.872 469.126 149.059 461.482 88.2989 424.493L97.7387 316.051Z" fill="#B77F6E" />
  </g>
  <g className="hair">
    <path d="M40.5883 271.203C30.8862 263.396 19.0298 194.08 16.2535 161.59C13.4772 129.1 12.5964 83.4574 26.6075 69.6693C34.4372 61.9642 41.1694 57.8734 45.5855 55.7635C38.6704 57.7271 32.3141 56.8528 26.6075 51.9141C31.4588 47.524 39.6443 45.8873 45.7803 48.9039C40.3736 43.2312 38.0638 37.1097 40.5883 29.5035C46.8629 32.8547 50.8646 38.0204 51.5614 45.4485C56.137 16.362 92.8923 -0.0583938 155.722 0.200089C216.941 3.35979 286.408 48.1674 278.094 82C301.485 82 294.455 138.916 290.874 164.398C290.874 164.398 279.058 265.189 264.912 271.203C176.832 308.646 133.162 311.058 40.5883 271.203Z" fill="#181818" />
  </g>
  <g className="right-ear ear">
    <path d="M307.387 275.621C302.397 292.481 289.62 302.684 278.848 298.411C268.077 294.138 263.39 277.006 268.38 260.146C273.371 243.286 286.148 233.083 296.919 237.357C307.691 241.63 312.378 258.762 307.387 275.621Z" fill="#C7A593" />
    <path d="M276.892 265.91C274.698 257.451 310.519 260.139 299.408 261.937C288.297 263.734 282.755 265.025 281.423 270.842C281.423 270.842 277.607 268.668 276.892 265.91Z" fill="#B77F6E" />
    <path d="M290.143 299.154C290.143 302.744 287.233 305.654 283.643 305.654C280.053 305.654 277.143 302.744 277.143 299.154C277.143 295.564 280.053 292.654 283.643 292.654C287.233 292.654 290.143 295.564 290.143 299.154Z" fill="#282828" />
  </g>
  <g className="left-ear ear">
    <path d="M2.20695 275.392C7.19716 292.251 19.9745 302.455 30.746 298.181C41.5175 293.908 46.2042 276.776 41.2139 259.917C36.2237 243.057 23.4464 232.854 12.6749 237.127C1.90339 241.4 -2.78326 258.532 2.20695 275.392Z" fill="#C7A593" />
    <path d="M32.7026 265.681C34.8958 257.222 -0.925051 259.91 10.1862 261.707C21.2975 263.505 26.8389 264.796 28.1709 270.612C28.1709 270.612 31.9876 268.439 32.7026 265.681Z" fill="#B77F6E" />
    <path d="M32.6582 299.154C32.6582 302.744 29.748 305.654 26.1582 305.654C22.5683 305.654 19.6582 302.744 19.6582 299.154C19.6582 295.564 22.5683 292.654 26.1582 292.654C29.748 292.654 32.6582 295.564 32.6582 299.154Z" fill="#282828" />
  </g>
  <g className="head">
    <path d="M264.036 346.243C285.84 314.283 281.448 200.161 264.036 121.619C246.623 43.0775 71.6132 42.7641 47.754 121.619C23.8947 200.475 26.0236 314.201 47.754 346.243C66.6749 374.143 104.381 430.679 156.036 430.679C207.691 430.679 236.109 387.177 264.036 346.243Z" fill="#C7A593" />
  </g>
  <g className="glasses">
    <path fill-rule="evenodd" clip-rule="evenodd" d="M155.895 210.984C163.334 210.84 173.777 212.099 173.777 212.099C173.777 212.099 175.211 211.948 176.227 210.984C176.227 210.984 185.356 200.174 193.236 197.061C201.29 192.937 236.835 187.334 259.37 199.162C260.604 200.007 262.047 201.219 263.571 202.499C267.076 205.445 271.008 208.748 273.799 208.748C273.799 208.748 278.688 208.997 281.337 208.997C281.69 208.997 282.167 209.511 282.167 209.511C282.167 209.511 283.813 214.225 283.294 215.471C282.947 216.307 276.701 219.125 276.701 219.125C275.299 219.965 274.891 221.718 274.729 223.297C275.192 249.09 269.944 261.578 250.926 277.462C226.722 294.05 196.383 290.711 177.458 254.997C173.429 244.173 172.967 241.785 172.726 227.876C172.889 226.079 173.088 225.144 173.777 223.704C173.846 223.308 173.929 222.929 174.007 222.574C174.282 221.325 174.496 220.355 173.777 219.846C171.168 218.2 165.222 217.724 155.895 217.724C146.568 217.724 140.623 218.2 138.013 219.846C137.294 220.355 137.508 221.325 137.783 222.574C137.862 222.929 137.945 223.307 138.013 223.704C138.703 225.144 138.902 226.079 139.065 227.876C138.824 241.785 138.361 244.173 134.333 254.997C115.407 290.711 85.0687 294.05 60.8641 277.462C41.8467 261.578 36.5985 249.09 37.0617 223.297C36.8998 221.718 36.4914 219.965 35.0894 219.125C35.0894 219.125 28.8438 216.307 28.4963 215.471C27.9778 214.225 29.6232 209.511 29.6232 209.511C29.6232 209.511 30.1006 208.997 30.4531 208.997C33.1027 208.997 37.9915 208.748 37.9915 208.748C40.7826 208.748 44.7143 205.445 48.2198 202.499C49.7434 201.219 51.1865 200.007 52.4205 199.162C74.9556 187.334 110.501 192.937 118.555 197.061C126.434 200.174 135.564 210.984 135.564 210.984C136.579 211.948 138.013 212.099 138.013 212.099C138.013 212.099 148.456 210.84 155.895 210.984ZM130.551 217.128C126.18 209.869 121.02 206.026 110.579 202.122C98.8024 198.645 79.2428 197.059 61.6715 203.22C55.2674 205.971 52.4052 208.232 48.2991 213.251C37.5993 225.546 45.9285 257.999 62.9866 269.65C81.3801 285.267 102.505 283.315 118.566 267.857C127.84 257.62 132.185 250.53 133.676 230C133.849 225.238 132.955 222.049 130.551 217.128ZM181.24 217.128C185.61 209.869 190.77 206.026 201.211 202.122C212.988 198.645 232.548 197.059 250.119 203.22C256.523 205.971 259.385 208.232 263.491 213.251C274.191 225.546 265.862 257.999 248.804 269.65C230.41 285.267 209.285 283.315 193.225 267.857C183.951 257.62 179.606 250.53 178.115 230C177.942 225.238 178.836 222.049 181.24 217.128Z" fill="#282828" />
  </g>
  <g className='right-eye eye'>
    <path d="M218.741 224.56C218.741 232.845 212.921 239.56 205.741 239.56C198.561 239.56 192.741 232.845 192.741 224.56C192.741 216.276 198.561 209.56 205.741 209.56C212.921 209.56 218.741 216.276 218.741 224.56Z" fill="black" />
  </g>
  <g className="left-eye eye">
    <path d="M119.049 224.56C119.049 232.845 113.229 239.56 106.049 239.56C98.8696 239.56 93.0493 232.845 93.0493 224.56C93.0493 216.276 98.8696 209.56 106.049 209.56C113.229 209.56 119.049 216.276 119.049 224.56Z" fill="black" />
  </g>
  <g className="smile">
    <path d="M116.895 356.28C130.025 361.185 181.963 361.587 194.895 349.493" stroke="#A57363" stroke-width="6" stroke-linecap="round" />
  </g>
  <g className="eyebrows">
    <path d="M189.924 185.775C187.752 177.307 188.747 173.703 195.908 170.06C244.477 172.04 251.857 178.554 253.905 192.06C234.413 182.964 218.123 184.345 189.924 185.775Z" fill="#493E3D" />
    <path d="M114.887 185.775C117.058 177.307 116.064 173.703 108.903 170.06C60.3339 172.04 52.954 178.554 50.9054 192.06C70.3976 182.964 86.6879 184.345 114.887 185.775Z" fill="#493E3D" />
  </g>
  <g className="facial-hair">
    <path d="M170.619 328.769C175.466 333.085 176.493 333.892 179.907 338.655M198.509 323.826C203.356 328.142 204.383 328.949 207.797 333.712M184.564 328.769C189.411 333.085 190.438 333.892 193.852 338.655M138.975 328.769C134.128 333.085 133.102 333.892 129.687 338.655M111.085 323.826C106.238 328.142 105.212 328.949 101.797 333.712M125.03 328.769C120.183 333.085 119.157 333.892 115.742 338.655M144.672 371.858C146.445 374.328 147.025 375.795 147.154 378.592M164.922 371.027C163.643 373.788 163.348 375.339 163.745 378.11M155.426 370.927C154.617 373.862 154.58 375.44 155.426 378.108M131.081 417.207C131.78 420.62 132.801 423.666 134.216 426.738M140.904 423.072C141.466 426.983 143.277 430.262 144.665 433.826M148.427 415.496C148.878 418.287 149.639 420.476 150.517 423.072M160.548 423.561C160.266 426.505 160.286 429.187 160.339 432.115M168.281 413.785C168.452 416.539 168.287 418.904 168.072 421.606M177.685 425.028C176.713 428.043 175.234 430.672 173.715 433.337M187.717 415.252C186.909 418.611 185.924 421.602 184.791 424.783" stroke="#493E3D" stroke-width="4" stroke-linecap="round" />
  </g>
  <g className="nose">
    <path d="M175.295 290.154C159.445 295.154 150.281 294.978 133.517 290.154C133.517 290.154 133.767 300.053 142.249 304.676C150.731 309.299 156.14 309.328 166.905 304.676C177.67 300.024 175.295 290.154 175.295 290.154Z" fill="#B77F6E" />
  </g>
  <g className='blinking-eyes'>
    <path d="M191.232 225.232C190.256 226.209 190.256 227.792 191.232 228.768C192.209 229.744 193.791 229.744 194.768 228.768L191.232 225.232ZM216.602 228.627C217.5 229.675 219.079 229.797 220.127 228.898C221.175 228 221.297 226.421 220.398 225.373L216.602 228.627ZM91.2322 224.482C90.2559 225.459 90.2559 227.042 91.2322 228.018C92.2086 228.994 93.7915 228.994 94.7678 228.018L91.2322 224.482ZM116.602 227.877C117.5 228.925 119.079 229.047 120.127 228.148C121.175 227.25 121.297 225.671 120.398 224.623L116.602 227.877ZM194.768 228.768C197.745 225.791 201.957 224.25 206.125 224.25C210.3 224.25 214.169 225.789 216.602 228.627L220.398 225.373C216.831 221.211 211.45 219.25 206.125 219.25C200.793 219.25 195.255 221.209 191.232 225.232L194.768 228.768ZM94.7678 228.018C97.7448 225.041 101.957 223.5 106.125 223.5C110.3 223.5 114.169 225.039 116.602 227.877L120.398 224.623C116.831 220.461 111.45 218.5 106.125 218.5C100.793 218.5 95.2552 220.459 91.2322 224.482L94.7678 228.018Z" fill="black" />
  </g>
  <g className='space-suit'>
  <path fill-rule="evenodd" clip-rule="evenodd" d="M91.2782 478.674C72.3885 483.887 60.9909 495.734 59.5812 520.051C59.5812 541.636 143.892 559.133 247.895 559.133C351.898 559.133 436.209 541.636 436.209 520.051C432.342 497.696 420.166 486.423 401.247 481.132C362.652 509.581 311.801 526.224 247.895 526.224C182.171 526.224 130.255 508.621 91.2782 478.674Z" fill="#D9D9D9"/>
<path d="M495.783 263.184C495.783 408.041 418.19 526.224 247.895 526.224C77.6 526.224 0.00775146 408.041 0.00775146 263.184C0.00775146 118.326 44.1131 0.896327 247.895 0.896301C451.677 0.896276 495.783 118.326 495.783 263.184Z" fill="#80E0FF" fill-opacity="0.2"/>
<path d="M494.283 263.184C494.283 335.363 474.951 400.742 434.559 448.052C394.198 495.325 332.668 524.724 247.895 524.724C163.123 524.724 101.592 495.325 61.2316 448.052C20.8398 400.742 1.50775 335.363 1.50775 263.184C1.50775 190.848 12.5332 125.694 48.7223 78.6329C84.8456 31.6568 146.295 2.39631 247.895 2.3963C349.495 2.39629 410.945 31.6568 447.068 78.6328C483.257 125.694 494.283 190.848 494.283 263.184Z" stroke="#80E0FF" stroke-opacity="0.35" stroke-width="3"/>
<ellipse cx="425.772" cy="341.51" rx="20.727" ry="33.4543" transform="rotate(13.4036 425.772 341.51)" fill="#B5DEF4" fill-opacity="0.46"/>
<ellipse cx="405.367" cy="406.472" rx="10.3331" ry="10.9501" transform="rotate(13.4036 405.367 406.472)" fill="#B5DEF4" fill-opacity="0.46"/>
<path d="M233.066 16.7249C148.116 48.3843 61.7324 121.345 29.9962 286.193C29.9962 286.193 3.01587 172.164 35.0976 121.181C89.5772 34.6033 233.066 16.7249 233.066 16.7249Z" fill="#B5DEF4" fill-opacity="0.46"/></g>
</svg>