<svg width="493" height="437" viewBox="0 0 493 437" fill="none" xmlns="http://www.w3.org/2000/svg">
<path d="M20.1924 72.9003C50.7179 48.4245 97.8775 81.9057 166.157 72.9003C258.948 60.6619 403.54 -4.97409 444.652 32.4917C507.645 89.897 442.612 164.114 432.492 254.793C425.792 314.822 480.647 396.845 413.456 430.464C345.592 454.402 249.904 402.178 181.472 398.177C115.568 394.323 32.8292 428.79 8.84827 407.664C-19.9481 367.741 32.9893 315.209 28.7005 243.914C23.1314 151.336 -25.056 109.181 20.1924 72.9003Z" fill="#06225C"/>
<ellipse cx="342.718" cy="71.3679" rx="5" ry="5.48152" fill="#2952A6"/>
<ellipse cx="83.7622" cy="129.864" rx="5" ry="5.48152" fill="#2952A6"/>
<ellipse cx="381.165" cy="113.485" rx="1.5" ry="1.64446" fill="white"/>
<ellipse cx="104.365" cy="297.195" rx="1.5" ry="1.64446" fill="white"/>
<ellipse cx="52.7302" cy="120.063" rx="1.5" ry="1.64446" fill="white"/>
<ellipse cx="388.924" cy="385.078" rx="1.5" ry="1.64446" fill="white"/>
<ellipse cx="359.218" cy="190.927" rx="1.5" ry="1.64446" fill="white"/>
<ellipse cx="100.865" cy="357.631" rx="5" ry="5.48152" fill="#2952A6"/>
<ellipse cx="376.907" cy="248.597" rx="5" ry="5.48152" fill="#2952A6"/>
<path fill-rule="evenodd" clip-rule="evenodd" d="M465.061 49.1243C472.468 65.1514 466.105 85.3023 450.85 94.1325C437.73 93.8303 427.442 82.3307 422.636 68.923C436.974 56.9944 454.493 47.4206 462.185 44.1372C463.268 45.668 464.233 47.3325 465.061 49.1243ZM460.045 41.4498C460.044 41.4492 460.043 41.4486 460.042 41.448L421.043 63.6065C418.621 53.6152 419.276 43.2553 424.028 36.0931C436.522 28.8612 451.106 31.4656 460.045 41.4498Z" fill="#C1AF50"/>
<ellipse cx="388.365" cy="269.24" rx="51.574" ry="56.5408" fill="#143883"/>
<path d="M424.497 309.586C444.822 287.709 445.121 251.911 425.166 229.629C405.211 207.346 372.558 207.018 352.233 228.895C349.102 232.264 346.447 235.963 344.268 239.893C345.8 273.116 383.064 314.812 413.774 318.459C417.6 316.081 421.21 313.124 424.497 309.586Z" fill="#3763A6"/>
<path d="M425.166 229.628C413.227 216.297 396.742 210.824 381.072 213.264C378.994 245.422 408.254 277.351 439.232 278.593C441.854 261.365 437.182 243.046 425.166 229.628Z" fill="#517CBC"/>
<ellipse rx="23.2958" ry="25.4805" transform="matrix(0.992508 0.122183 -0.101894 0.994795 50.6098 357.826)" fill="#855A03"/>
<path d="M64.9554 377.908C75.0719 369.222 76.8501 353.19 68.9272 342.099C61.0042 331.008 46.3804 329.059 36.2639 337.745C34.7058 339.083 33.3455 340.595 32.188 342.236C31.3492 357.215 46.1406 377.964 59.7411 381.294C61.5655 380.439 63.3194 379.313 64.9554 377.908Z" fill="#B2761C"/>
<path d="M68.927 342.099C64.1867 335.463 57.0478 332.1 49.9106 332.329C47.5025 346.631 59.1537 362.56 72.9844 364.827C74.9512 357.248 73.6979 348.777 68.927 342.099Z" fill="#D49029"/>
<path d="M40.0566 347.045C43.3966 345.196 46.4635 349.155 43.3966 352.814C43.225 349.652 42.2762 348.202 40.0566 347.045Z" fill="#855A02"/>
<path d="M46.0062 363.582C49.3461 361.733 52.4131 365.691 49.3461 369.351C49.1746 366.189 48.2258 364.739 46.0062 363.582Z" fill="#855A02"/>
<path d="M58.1387 367.33C61.4787 365.48 64.5457 369.439 61.4787 373.099C61.3072 369.936 60.3584 368.487 58.1387 367.33Z" fill="#855A02"/>
<path d="M40.8356 371.319C37.4957 373.168 34.4287 369.209 37.4957 365.55C37.6672 368.712 38.616 370.162 40.8356 371.319Z" fill="#B2761C"/>
<path d="M386.458 130.441C387.557 127.622 388.03 136.04 388.03 136.04C388.03 136.04 391.15 135.831 393.117 136.04C394.877 136.226 389.002 139.5 389.002 139.5C389.002 139.5 391.437 145.357 390.573 145.098C388.317 144.423 386.458 141.638 386.458 141.638C386.458 141.638 382.343 146.897 382.343 145.098C382.343 142.815 383.915 139.5 383.915 139.5C383.915 139.5 381.332 137.438 379.8 136.04C378.682 135.019 384.887 136.04 384.887 136.04C384.887 136.04 385.36 133.261 386.458 130.441Z" fill="#A4C8FE"/>
<path d="M55.4191 77.427C56.5172 74.6076 56.9909 83.0255 56.9909 83.0255C56.9909 83.0255 60.111 82.817 62.0773 83.0255C63.8372 83.212 57.9623 86.4855 57.9623 86.4855C57.9623 86.4855 60.3975 92.3425 59.5341 92.084C57.2779 91.4087 55.4191 88.624 55.4191 88.624C55.4191 88.624 51.304 93.883 51.304 92.084C51.304 89.8004 52.8758 86.4855 52.8758 86.4855C52.8758 86.4855 50.2927 84.4236 48.7608 83.0255C47.6423 82.0046 53.8473 83.0255 53.8473 83.0255C53.8473 83.0255 54.3209 80.2463 55.4191 77.427Z" fill="#A4C8FE"/>
<path d="M421.876 370.046C422.974 367.227 423.447 375.645 423.447 375.645C423.447 375.645 426.568 375.436 428.534 375.645C430.294 375.831 424.419 379.105 424.419 379.105C424.419 379.105 426.854 384.962 425.991 384.703C423.734 384.028 421.876 381.243 421.876 381.243C421.876 381.243 417.761 386.502 417.761 384.703C417.761 382.42 419.332 379.105 419.332 379.105C419.332 379.105 416.749 377.043 415.217 375.645C414.099 374.624 420.304 375.645 420.304 375.645C420.304 375.645 420.777 372.866 421.876 370.046Z" fill="#A4C8FE"/>
<path d="M52.6604 278.295C53.7586 275.476 54.2322 283.894 54.2322 283.894C54.2322 283.894 57.3524 283.685 59.3187 283.894C61.0785 284.08 55.2037 287.354 55.2037 287.354C55.2037 287.354 57.6389 293.211 56.7755 292.952C54.5193 292.277 52.6604 289.492 52.6604 289.492C52.6604 289.492 48.5454 294.751 48.5454 292.952C48.5454 290.668 50.1172 287.354 50.1172 287.354C50.1172 287.354 47.5341 285.292 46.0022 283.894C44.8836 282.873 51.0887 283.894 51.0887 283.894C51.0887 283.894 51.5623 281.114 52.6604 278.295Z" fill="#A4C8FE"/>
<path d="M492.57 30.5018C490.84 26.5942 462.538 37.7524 429.862 56.6714C397.187 75.5903 372.511 95.1057 374.242 99.0133C375.467 101.779 389.799 96.4903 409.657 86.4544L408.445 83.9809C398.99 88.313 392.632 90.281 391.957 88.7566C390.744 86.019 408.319 73.055 431.211 59.8008C454.103 46.5465 473.643 38.021 474.856 40.7586C475.34 41.8517 467.7 46.0513 463.051 49.7729C463.331 50.4513 463.547 51.0294 463.679 51.6386C478.847 41.2588 493.652 32.9434 492.57 30.5018Z" fill="#A4C8FE"/>
</svg>
